<svg width="500" height="500" xmlns="http://www.w3.org/2000/svg">

 <g>
  <title>background</title>
  <rect fill="none" id="canvas_background" height="402" width="582" y="-1" x="-1"/>
 </g>
 <g class="layer">
  <title>Layer 1</title>
  <g id="OBJECTS">
   <path id="svg_2" fill="#EDEDF5" d="m66.42,334.23c0,0 -27.43,-45.49 -17.5,-110.16c16.83,-109.66 192.76,-184.62 254.74,-159.15c61.97,25.46 46.06,104.24 92.21,123.34s78.78,69.62 35.81,146.61l-365.26,-0.64z"/>
   <line y2="334.18" y1="334.18" x2="483.78" x1="16.22" stroke-width="0.57" stroke-miterlimit="10" stroke="#343E54" id="svg_3" fill="none"/>
   <g id="svg_4">
    <path id="svg_5" fill="#9b63bf" d="m376.72,293.78c0,75.38 -57.04,72.64 -127.41,72.64s-127.42,2.74 -127.42,-72.64c0,-75.38 57.05,-136.49 127.42,-136.49s127.41,61.11 127.41,136.49z"/>
    <path opacity="0.2" id="svg_6" fill="#9b63bf" d="m131.05,265.98c0,0 3.9,2.83 13.53,4.7c9.63,1.87 13.8,-0.88 13.8,-0.88s-1.21,-2.11 -13.33,-4.32c-12.12,-2.23 -13.41,-0.65 -14,0.5z"/>
    <path opacity="0.2" id="svg_7" fill="#9b63bf" d="m139.87,252.47c0,0 2.11,2.99 8.29,5.37c6.19,2.38 9.55,-0.06 9.55,-0.06s-0.41,-2.12 -8.22,-4.99c-7.81,-2.86 -9,-1.4 -9.62,-0.32z"/>
    <path opacity="0.2" id="svg_8" fill="#9b63bf" d="m357.98,245.09c0,0 -3.63,-0.35 -9.48,2.78c-5.84,3.13 -6.18,7.27 -6.18,7.27s1.88,1.07 9.15,-2.98c7.26,-4.04 6.93,-5.89 6.51,-7.07z"/>
    <path id="svg_9" fill="#9b63bf" d="m412.25,318.86c0,35.32 -72.64,90.62 -162.25,90.62s-162.25,-55.3 -162.25,-90.62s72.64,-10.23 162.25,-10.23s162.25,-25.1 162.25,10.23z"/>
    <path opacity="0.2" id="svg_10" fill="#9b63bf" d="m152.63,385.52c0,0 3.76,-1.63 8.75,-7.56c4.99,-5.93 4.17,-9.84 4.17,-9.84s-2.19,0.06 -8.36,7.57c-6.18,7.52 -5.31,9 -4.56,9.83z"/>
    <path opacity="0.2" id="svg_11" fill="#9b63bf" d="m144.44,374.41c0,0 3.26,-0.34 7.45,-3.71c4.2,-3.36 3.35,-6.59 3.35,-6.59s-1.93,-0.5 -7.11,3.8c-5.18,4.31 -4.38,5.67 -3.69,6.5z"/>
    <path opacity="0.2" id="svg_12" fill="#9b63bf" d="m381.75,322.51c0,20.58 -59.3,52.79 -132.44,52.79c-73.15,0 -132.45,-32.21 -132.45,-52.79c0,-20.57 59.3,-5.95 132.45,-5.95c73.14,0 132.44,-14.62 132.44,5.95z"/>
    <path opacity="0.2" id="svg_13" fill="#9b63bf" d="m367.57,271.37c0,0 -4,-2.16 -12.72,-1.95c-8.72,0.2 -11.72,4.15 -11.72,4.15s1.51,2 12.46,1.59c10.95,-0.41 11.72,-2.41 11.98,-3.79z"/>
    <path opacity="0.2" id="svg_14" fill="#9b63bf" d="m337.42,283.93c0,52.13 -39.45,50.24 -88.11,50.24c-48.66,0 -88.11,1.89 -88.11,-50.24c0,-52.12 39.45,-94.38 88.11,-94.38c48.66,0 88.11,42.26 88.11,94.38z"/>
   </g>
   <g id="svg_15">
    <path id="svg_16" fill="#FF9B98" d="m309.07,206.87c0,0 22.91,58.79 27.91,69.69l-26.92,1.52l-31.82,-64.87l30.83,-6.34z"/>
    <polygon points="309.066,206.867 320.782,236.704 294.558,246.48 278.236,213.208   " id="svg_17" fill="#3D4053"/>
    <path id="svg_18" fill="#FF9B98" d="m183.93,206.87c0,0 -22.91,58.79 -27.91,69.69l26.92,1.52l31.82,-64.87l-30.83,-6.34z"/>
    <polygon points="183.932,206.867 172.216,236.704 198.44,246.48 214.761,213.208   " id="svg_19" fill="#3D4053"/>
    <path id="svg_20" fill="#2F241E" d="m226.44,132.65c0,0 -6.24,-27.37 -3.68,-30.14c2.57,-2.76 7.3,-1.49 7.3,-1.49s-7.06,-9.72 23.66,-12.56c18.15,-1.67 5.94,8.7 5.94,8.7s5.77,1.32 7.96,3.22c2.19,1.91 -2.6,8.45 -2.6,8.45s3.88,1.88 5.13,4.34c1.25,2.46 -3.3,20.23 -3.3,20.23l-40.41,-0.75z"/>
    <path id="svg_21" fill="#F7285E" d="m229.16,166.17c0,0 -26.28,12.61 -34.69,20.5c-8.41,7.88 -24.94,44.4 -24.94,44.4l32.3,8.15l-4.5,64.24l96.48,0l-3.34,-64.24l29.75,-12.01c0,0 -17.44,-35.97 -21.12,-41.76c-3.68,-5.78 -33.15,-19.28 -33.15,-19.28l-36.79,0z"/>
    <line y2="285.55" y1="229.91" x2="220.57" x1="262.83" stroke-width="0.57" stroke-miterlimit="10" stroke="#FF618A" id="svg_22" fill="none"/>
    <line y2="285.32" y1="244.67" x2="251.23" x1="277.1" stroke-width="0.57" stroke-miterlimit="10" stroke="#FF618A" id="svg_23" fill="none"/>
    <path id="svg_24" fill="#CF7D7C" d="m213.51,260.04c0,0 2.57,-2.68 4.1,-3.9s10.09,-2.6 11.06,-2.84c0.98,-0.24 1.26,8.53 -15.16,6.74z"/>
    <path id="svg_25" fill="#CF7D7C" d="m279.49,260.04c0,0 -2.62,-2.68 -4.15,-3.9c-1.53,-1.21 -10.09,-2.6 -11.06,-2.84c-0.98,-0.24 -1.21,8.53 15.21,6.74z"/>
    <path id="svg_26" fill="#FF9B98" d="m234.69,142.91c0,0 -1.45,15.09 -5.53,23.26l17.52,26.2l19.27,-26.2c0,0 -6.77,-16.06 -7.41,-23.26l-23.85,0z"/>
    <path id="svg_27" fill="#3D4053" d="m234.69,142.91c0,0 -0.65,6.29 -2.08,12.73c0,0 7.7,8.35 13.89,8.35c6.19,0 15.08,-9.34 15.08,-9.34s-2.77,-7.93 -3.04,-11.74l-23.85,0z"/>
    <path id="svg_28" fill="#FF9B98" d="m230.12,126.07c0,0 -7.73,-3.23 -8.22,3.54c-0.48,6.77 3.55,9.51 9.67,7.09l-1.45,-10.63z"/>
    <path stroke-width="0.55" stroke-miterlimit="10" stroke="#0D0000" id="svg_29" fill="none" d="m224.05,131.07c0,0 1.23,-1.9 2.41,-1.57c1.17,0.34 3.41,2.8 4.19,4.53"/>
    <path id="svg_30" fill="#FF9B98" d="m262.31,126.2c0,0 7.74,-3.22 8.22,3.55c0.48,6.77 -3.54,9.51 -9.67,7.09l1.45,-10.64z"/>
    <path stroke-width="0.55" stroke-miterlimit="10" stroke="#0D0000" id="svg_31" fill="none" d="m269.25,131.07c0,0 -1.23,-1.9 -2.41,-1.57c-1.17,0.34 -3.4,2.8 -4.19,4.53"/>
    <path id="svg_32" fill="#FF9B98" d="m263.2,114.56c-2.04,-6.11 -8.44,-6.69 -16.7,-6.69c-8.26,0 -14.66,0.58 -16.7,6.69c-2.04,6.11 0.76,24.58 1.92,29.24c1.16,4.65 8.38,14.08 14.95,14.08c6.58,0 13.79,-9.43 14.96,-14.08c1.16,-4.66 3.6,-23.13 1.57,-29.24z"/>
    <g id="svg_33">
     <g id="svg_34">
      <g id="svg_35">
       <g id="svg_36">
        <g id="svg_37">
         <path id="svg_38" fill="#0D0000" d="m241.83,130.44c0.01,1.22 -0.53,2.2 -1.19,2.21c-0.66,0 -1.2,-0.99 -1.21,-2.2c0,-1.22 0.54,-2.21 1.2,-2.21c0.66,0 1.2,0.98 1.2,2.2z"/>
        </g>
       </g>
      </g>
     </g>
    </g>
    <path id="svg_39" fill="#2F241E" d="m234.49,123.28c0,0 1.56,-2.41 5.13,-2.15c3.57,0.26 4.09,1.69 3.77,2.15c-0.54,0.74 -2.25,0.57 -3.64,0c-2.08,-0.86 -5.32,0.84 -5.26,0z"/>
    <path id="svg_40" fill="#E8707C" d="m232.19,138.16c-0.06,-2.1 6.49,-2.36 6.54,0c0.06,2.35 -6.43,3.26 -6.54,0z"/>
    <g id="svg_41">
     <g id="svg_42">
      <g id="svg_43">
       <g id="svg_44">
        <g id="svg_45">
         <path id="svg_46" fill="#0D0000" d="m251.31,130.44c0,1.22 0.53,2.2 1.2,2.21c0.66,0 1.2,-0.99 1.2,-2.2c0.01,-1.22 -0.53,-2.21 -1.19,-2.21c-0.66,0 -1.2,0.98 -1.21,2.2z"/>
        </g>
       </g>
      </g>
     </g>
    </g>
    <path id="svg_47" fill="#2F241E" d="m258.51,123.28c0,0 -1.56,-2.41 -5.13,-2.15c-3.57,0.26 -4.09,1.69 -3.77,2.15c0.54,0.74 2.25,0.57 3.64,0c2.07,-0.86 5.32,0.84 5.26,0z"/>
    <path id="svg_48" fill="#E8707C" d="m260.8,138.16c0.07,-2.1 -6.48,-2.36 -6.54,0c-0.05,2.35 6.44,3.26 6.54,0z"/>
    <path stroke-width="0.55" stroke-miterlimit="10" stroke="#0D0000" id="svg_49" fill="none" d="m247.35,130.44c0,0 -1.36,5.59 -3.2,6.56c-2.11,1.11 -0.35,3.13 3.2,2.98"/>
    <path id="svg_50" fill="#F4F4F4" d="m238.74,144.68c0,0 9.17,-1.68 15.52,0c0,0 -2.94,9.23 -8.04,8.76c-5.11,-0.48 -7.48,-8.76 -7.48,-8.76z"/>
    <path id="svg_51" fill="#2F241E" d="m229.08,106.93c0,0 5.41,14.18 25.41,9.81c2.53,-0.56 -1.98,-3.84 -1.98,-3.84s5.03,1.89 8.35,1.3c0,0 -2.35,8.24 -1.33,10.64c0.66,1.52 4.35,0.88 4.35,0.88s3.09,-20.89 -5.37,-21.89c-26.32,-3.1 -29.43,3.1 -29.43,3.1z"/>
    <g id="svg_52">
     <path id="svg_53" fill="#202B2B" d="m231.46,255.94c-0.05,-0.86 -1.61,-1.47 -3.5,-1.38c-1.9,0.09 -3.4,0.86 -3.35,1.71c0.04,0.86 1.61,1.47 3.5,1.38c1.89,-0.09 3.39,-0.86 3.35,-1.71z"/>
     <path id="svg_54" fill="#202B2B" d="m258.6,255.94c0.04,-0.86 1.61,-1.47 3.5,-1.38c1.89,0.09 3.39,0.86 3.35,1.71c-0.04,0.86 -1.61,1.47 -3.5,1.38c-1.89,-0.09 -3.39,-0.86 -3.35,-1.71z"/>
     <path id="svg_55" fill="#2E3E3D" d="m278.32,273.57l-6.76,-13.32c-1.07,-2.1 -3.15,-3.49 -5.5,-3.68c-5.59,-0.45 -12.97,-1.22 -21.03,-1.22s-15.45,0.77 -21.04,1.22c-2.35,0.19 -4.42,1.58 -5.49,3.68l-6.76,13.32c-1.36,2.67 -0.77,6.03 1.61,7.85c2.78,2.13 6.69,1.51 8.7,-1.24l7.69,-10.53c7.94,2.54 15.29,2.62 15.29,2.62s7.34,-0.08 15.29,-2.62l7.69,10.53c2.01,2.75 5.91,3.37 8.7,1.24c2.38,-1.82 2.97,-5.18 1.61,-7.85z"/>
     <path id="svg_56" fill="#0AA799" d="m245.03,264.09l-8.87,0c-0.79,0 -1.43,0.64 -1.43,1.43l0,0c0,0.66 0.46,1.24 1.1,1.39l0,0c6.05,1.44 12.35,1.44 18.39,0l0,0c0.65,-0.15 1.1,-0.73 1.1,-1.39l0,0c0,-0.79 -0.64,-1.43 -1.43,-1.43l-8.86,0z"/>
     <path id="svg_57" fill="#3E5452" d="m229.26,261.86l-5.08,0c-1,0 -1.83,-0.82 -1.83,-1.82l0,0c0,-1.01 0.83,-1.83 1.83,-1.83l5.08,0c1.01,0 1.83,0.82 1.83,1.83l0,0c0,1 -0.82,1.82 -1.83,1.82z"/>
     <path id="svg_58" fill="#3E5452" d="m265.88,261.86l-5.09,0c-1,0 -1.82,-0.82 -1.82,-1.82l0,0c0,-1.01 0.82,-1.83 1.82,-1.83l5.09,0c1,0 1.82,0.82 1.82,1.83l0,0c0,1 -0.82,1.82 -1.82,1.82z"/>
     <path id="svg_59" fill="#3E5452" d="m230.22,265.44l-7,0c-0.48,0 -0.87,-0.39 -0.87,-0.87l0,-0.17c0,-0.48 0.39,-0.87 0.87,-0.87l7,0c0.48,0 0.87,0.39 0.87,0.87l0,0.17c0,0.48 -0.39,0.87 -0.87,0.87z"/>
     <path id="svg_60" fill="#3E5452" d="m266.83,265.44l-6.99,0c-0.48,0 -0.87,-0.39 -0.87,-0.87l0,-0.17c0,-0.48 0.39,-0.87 0.87,-0.87l6.99,0c0.48,0 0.87,0.39 0.87,0.87l0,0.17c0,0.48 -0.39,0.87 -0.87,0.87z"/>
     <path stroke-width="0.27" stroke-miterlimit="10" stroke="#394D4B" id="svg_61" fill="none" d="m235.26,255.68l0,4.33c0,1.02 0.83,1.85 1.86,1.85l17.19,0c1.03,0 1.86,-0.83 1.86,-1.85l0,-4.24"/>
    </g>
    <path id="svg_62" fill="#FF9B98" d="m225.07,257.69c-2.32,-0.32 -8.9,-0.53 -10.1,0.54c-1.21,1.06 -5.42,7.81 -5.42,7.81s-5.88,5.84 -33.52,2.27c-20.63,-2.67 -22.22,12.28 -20.73,15.31c1.47,3 7.15,6.67 12.39,6.44c5.24,-0.24 45.33,-13.4 45.33,-13.4c4.82,-1.05 4.05,-5.6 4.05,-5.6s8.25,-1 8.11,-1.76c-0.14,-0.76 -1.76,-3.08 -1.76,-3.08s1.05,-0.25 2.2,-0.95c1.15,-0.71 -1.71,-3.31 -1.71,-3.31s8.18,0.5 8.28,-2.03c0.07,-1.51 -7.12,-2.24 -7.12,-2.24"/>
    <path stroke-width="0.55" stroke-miterlimit="10" stroke="#0D0000" id="svg_63" fill="none" d="m187.99,269.4c0,0 -8.68,-2.15 -15.77,-1.4"/>
    <path id="svg_64" fill="#FF9B98" d="m267.93,257.69c2.31,-0.32 8.9,-0.53 10.1,0.54c1.2,1.06 5.42,7.81 5.42,7.81s5.88,5.84 33.52,2.27c20.63,-2.67 22.21,12.28 20.72,15.31c-1.46,3 -7.14,6.67 -12.38,6.44c-5.25,-0.24 -45.33,-13.4 -45.33,-13.4c-4.82,-1.05 -4.05,-5.6 -4.05,-5.6s-8.25,-1 -8.11,-1.76c0.14,-0.76 1.76,-3.08 1.76,-3.08s-1.05,-0.25 -2.2,-0.95c-1.15,-0.71 1.7,-3.31 1.7,-3.31s-8.17,0.5 -8.27,-2.03c-0.07,-1.51 7.12,-2.24 7.12,-2.24"/>
    <path stroke-width="0.55" stroke-miterlimit="10" stroke="#0D0000" id="svg_65" fill="none" d="m305.01,269.4c0,0 8.68,-2.15 15.77,-1.4"/>
    <path id="svg_66" fill="#343E54" d="m197.33,303.46c0,0 -75.88,-18.53 -85.41,-13.39s83.51,75.66 129.91,75.66c46.41,0 157.21,-61.21 149.51,-74.55c-4.77,-8.25 -97.53,12.28 -97.53,12.28l-96.48,0z"/>
    <path stroke-width="0.57" stroke-miterlimit="10" stroke="#42506B" id="svg_67" fill="none" d="m197.33,303.46c0,0 56.66,9.73 96.48,0"/>
    <line y2="358.26" y1="303.46" x2="247.56" x1="247.56" stroke-width="0.57" stroke-miterlimit="10" stroke="#42506B" id="svg_68" fill="none"/>
    <path stroke-width="0.57" stroke-miterlimit="10" stroke="#42506B" id="svg_69" fill="none" d="m135.8,313.52c0,0 95.42,49.35 225.54,-2"/>
    <g id="svg_70">
     <path id="svg_71" fill="#FDFFFF" d="m249.93,358.74c0,0 1.36,-3.51 10.87,-3.5c2.14,0 29.78,7.11 38.66,9.22c10.7,2.54 17.69,19.06 -7.73,20.02c-25.41,0.95 -35.62,-6.29 -41.8,-9.18c-6.17,-2.9 0,-16.56 0,-16.56z"/>
     <path id="svg_72" fill="#FF9B98" d="m211.49,348.36c8.29,2.74 26.82,7.14 43.05,11.21c6.68,1.68 12.51,9.98 9.72,14.56c-2.79,4.58 -38.64,-2.3 -57.6,-10.83l4.83,-14.94z"/>
     <path id="svg_73" fill="#DCDEDE" d="m259.14,361.34l28.82,4.54c0,0 -4.93,8.44 -1.22,14.1l-29.88,-4.41l2.28,-14.23z"/>
     <path id="svg_74" fill="#DCDEDE" d="m259.14,361.34c0,0 -6.22,-5.46 -14.27,-5.47c-5.24,0 -7.11,17.58 -3.61,19.72c1.08,0.66 15.6,-0.02 15.6,-0.02l2.28,-14.23z"/>
     <line y2="377.89" y1="360.43" x2="266.36" x1="261.38" stroke-width="0.55" stroke-miterlimit="10" stroke-linejoin="round" stroke-linecap="round" stroke="#0D0000" id="svg_75" fill="none"/>
     <line y2="376.63" y1="361.61" x2="258.25" x1="269.2" stroke-width="0.55" stroke-miterlimit="10" stroke-linejoin="round" stroke-linecap="round" stroke="#0D0000" id="svg_76" fill="none"/>
     <line y2="379" y1="361.61" x2="275.22" x1="269.2" stroke-width="0.55" stroke-miterlimit="10" stroke-linejoin="round" stroke-linecap="round" stroke="#0D0000" id="svg_77" fill="none"/>
     <line y2="377.89" y1="363.62" x2="266.36" x1="277.77" stroke-width="0.55" stroke-miterlimit="10" stroke-linejoin="round" stroke-linecap="round" stroke="#0D0000" id="svg_78" fill="none"/>
     <polygon points="246.773,361.302 245.483,369.418 251.896,370.164 253.507,362.713    " id="svg_79" fill="#CDCFCF"/>
    </g>
    <g id="svg_80">
     <path id="svg_81" fill="#434F6B" d="m111.92,289.75c-19.43,0.29 -11.44,28.96 15.25,48.98c11.84,8.88 87.59,33.36 87.59,33.36l10.29,-23.73c0,0 -88.35,-58.98 -113.13,-58.61z"/>
     <path id="svg_82" fill="#4B5878" d="m226.72,345.89l-13.21,29.99c0,0 -9.66,-2.11 -8.95,-2.59c0.72,-0.48 12.63,-32.64 12.63,-32.64l9.53,5.24z"/>
     <path opacity="0.05" id="svg_83" fill="#FFFFFF" d="m110.43,310.42c0,0 2.51,-0.85 6.4,-4.56c3.89,-3.72 3.99,-6.46 3.99,-6.46s-1.33,-0.13 -6.17,4.59s-4.55,5.8 -4.22,6.43z"/>
     <path opacity="0.05" id="svg_84" fill="#FFFFFF" d="m107.27,302.63c0,0 1.99,-0.3 4.68,-2.74c2.69,-2.44 2.33,-4.7 2.33,-4.7s-1.14,-0.32 -4.48,2.8c-3.33,3.12 -2.91,4.06 -2.53,4.64z"/>
    </g>
    <g id="svg_85">
     <path id="svg_86" fill="#FDFFFF" d="m250.06,358.74c0,0 -1.35,-3.51 -10.87,-3.5c-2.14,0 -29.77,7.11 -38.65,9.22c-10.7,2.54 -17.69,19.06 7.73,20.02c25.41,0.95 35.62,-6.29 41.8,-9.18c6.17,-2.9 -0.01,-16.56 -0.01,-16.56z"/>
     <path id="svg_87" fill="#FF9B98" d="m288.51,348.36c-8.29,2.74 -26.82,7.14 -43.05,11.21c-6.68,1.68 -12.51,9.98 -9.72,14.56c2.79,4.58 38.64,-2.3 57.6,-10.83l-4.83,-14.94z"/>
     <path id="svg_88" fill="#DCDEDE" d="m240.86,361.34l-28.82,4.54c0,0 4.93,8.44 1.22,14.1l29.88,-4.41l-2.28,-14.23z"/>
     <path id="svg_89" fill="#DCDEDE" d="m240.86,361.34c0,0 6.22,-5.46 14.27,-5.47c5.24,0 7.11,17.58 3.61,19.72c-1.08,0.66 -15.6,-0.02 -15.6,-0.02l-2.28,-14.23z"/>
     <line y2="377.89" y1="360.43" x2="233.64" x1="238.63" stroke-width="0.55" stroke-miterlimit="10" stroke-linejoin="round" stroke-linecap="round" stroke="#0D0000" id="svg_90" fill="none"/>
     <line y2="376.63" y1="361.61" x2="241.75" x1="230.79" stroke-width="0.55" stroke-miterlimit="10" stroke-linejoin="round" stroke-linecap="round" stroke="#0D0000" id="svg_91" fill="none"/>
     <line y2="379" y1="361.61" x2="224.78" x1="230.79" stroke-width="0.55" stroke-miterlimit="10" stroke-linejoin="round" stroke-linecap="round" stroke="#0D0000" id="svg_92" fill="none"/>
     <line y2="377.89" y1="363.62" x2="233.64" x1="222.23" stroke-width="0.55" stroke-miterlimit="10" stroke-linejoin="round" stroke-linecap="round" stroke="#0D0000" id="svg_93" fill="none"/>
     <polygon points="253.227,361.302 254.517,369.418 248.104,370.164 246.492,362.713    " id="svg_94" fill="#CDCFCF"/>
    </g>
    <g id="svg_95">
     <path id="svg_96" fill="#434F6B" d="m388.08,289.75c19.43,0.29 11.43,28.96 -15.25,48.98c-11.84,8.88 -87.59,33.36 -87.59,33.36l-10.29,-23.73c0,0 88.35,-58.98 113.13,-58.61z"/>
     <path id="svg_97" fill="#4B5878" d="m273.28,345.89l13.21,29.99c0,0 9.66,-2.11 8.95,-2.59c-0.72,-0.48 -12.63,-32.64 -12.63,-32.64l-9.53,5.24z"/>
     <path opacity="0.05" id="svg_98" fill="#FFFFFF" d="m389.57,310.42c0,0 -2.5,-0.85 -6.4,-4.56c-3.89,-3.72 -3.99,-6.46 -3.99,-6.46s1.33,-0.13 6.17,4.59s4.55,5.8 4.22,6.43z"/>
     <path opacity="0.05" id="svg_99" fill="#FFFFFF" d="m392.73,302.63c0,0 -1.98,-0.3 -4.68,-2.74c-2.69,-2.44 -2.33,-4.7 -2.33,-4.7s1.14,-0.32 4.48,2.8c3.33,3.12 2.91,4.06 2.53,4.64z"/>
    </g>
    <polygon points="201.833,239.221 202.811,229.265 170.715,220.807 167.245,231   " id="svg_100" fill="#FFFFFF"/>
    <polygon points="290.465,239.221 289.252,229.327 321.583,220.807 325.052,231   " id="svg_101" fill="#FFFFFF"/>
    <line y2="199.12" y1="239.22" x2="206.43" x1="201.83" stroke-width="0.55" stroke-miterlimit="10" stroke="#FF618A" id="svg_102" fill="none"/>
    <line y2="199.12" y1="239.22" x2="285.62" x1="290.44" stroke-width="0.55" stroke-miterlimit="10" stroke="#FF618A" id="svg_103" fill="none"/>
    <polygon points="229.161,166.169 246.674,192.37 265.95,166.169 271.697,168.892 246.402,203.892     222.353,169.568   " id="svg_104" fill="#C9214D"/>
    <path id="svg_105" fill="#FFFFFF" d="m229.16,166.17c0,0 17.09,12.37 36.79,0l-19.28,26.2l-17.51,-26.2z"/>
    <line y2="298.03" y1="298.03" x2="293.53" x1="197.71" stroke-width="0.55" stroke-miterlimit="10" stroke="#FF618A" id="svg_106" fill="none"/>
   </g>
   <g id="svg_107">
    <path id="svg_108" fill="#5B5B5B" d="m394.25,492.71l-288.5,0l0,-94.45c0,-8.23 6.68,-14.91 14.92,-14.91l258.66,0c8.24,0 14.91,6.68 14.91,14.91l0,94.45l0.01,0z"/>
    <path id="svg_109" fill="#4E4E4E" d="m394.25,500l-288.5,0l0,-94.44c0,-8.24 6.68,-14.92 14.92,-14.92l258.66,0c8.24,0 14.91,6.68 14.91,14.92l0,94.44l0.01,0z"/>
    <path id="svg_110" fill="#474747" d="m305.42,462.59l-110.84,0c-6.6,0 -12,5.4 -12,12l0,25.41l134.84,0l0,-25.41c0,-6.6 -5.4,-12 -12,-12z"/>
    <g id="svg_111">
     <path id="svg_112" fill="#404040" d="m304.48,500l-36.48,0l0,-15.98c0,-3.42 2.81,-6.22 6.23,-6.22l24.02,0c3.43,0 6.23,2.8 6.23,6.22l0,15.98z"/>
     <path id="svg_113" fill="#404040" d="m223.71,479.53l-27.32,0c-0.48,0 -0.87,-0.39 -0.87,-0.87l0,0c0,-0.47 0.39,-0.86 0.87,-0.86l27.32,0c0.48,0 0.87,0.39 0.87,0.86l0,0c0,0.48 -0.39,0.87 -0.87,0.87z"/>
     <path id="svg_114" fill="#404040" d="m259.95,479.53l-27.32,0c-0.48,0 -0.87,-0.39 -0.87,-0.87l0,0c0,-0.47 0.39,-0.86 0.87,-0.86l27.32,0c0.48,0 0.87,0.39 0.87,0.86l0,0c0,0.48 -0.39,0.87 -0.87,0.87z"/>
     <path id="svg_115" fill="#404040" d="m223.71,485.6l-27.32,0c-0.48,0 -0.87,-0.39 -0.87,-0.87l0,0c0,-0.47 0.39,-0.86 0.87,-0.86l27.32,0c0.48,0 0.87,0.39 0.87,0.86l0,0c0,0.48 -0.39,0.87 -0.87,0.87z"/>
     <path id="svg_116" fill="#404040" d="m259.95,485.6l-27.32,0c-0.48,0 -0.87,-0.39 -0.87,-0.87l0,0c0,-0.47 0.39,-0.86 0.87,-0.86l27.32,0c0.48,0 0.87,0.39 0.87,0.86l0,0c0,0.48 -0.39,0.87 -0.87,0.87z"/>
     <path id="svg_117" fill="#404040" d="m223.71,491.68l-27.32,0c-0.48,0 -0.87,-0.39 -0.87,-0.87l0,0c0,-0.48 0.39,-0.87 0.87,-0.87l27.32,0c0.48,0 0.87,0.39 0.87,0.87l0,0c0,0.47 -0.39,0.87 -0.87,0.87z"/>
     <path id="svg_118" fill="#404040" d="m259.95,491.68l-27.32,0c-0.48,0 -0.87,-0.39 -0.87,-0.87l0,0c0,-0.48 0.39,-0.87 0.87,-0.87l27.32,0c0.48,0 0.87,0.39 0.87,0.87l0,0c0,0.47 -0.39,0.87 -0.87,0.87z"/>
     <path id="svg_119" fill="#404040" d="m223.71,497.75l-27.32,0c-0.48,0 -0.87,-0.39 -0.87,-0.87l0,0c0,-0.48 0.39,-0.87 0.87,-0.87l27.32,0c0.48,0 0.87,0.39 0.87,0.87l0,0c0,0.48 -0.39,0.87 -0.87,0.87z"/>
     <path id="svg_120" fill="#404040" d="m259.95,497.75l-27.32,0c-0.48,0 -0.87,-0.39 -0.87,-0.87l0,0c0,-0.48 0.39,-0.87 0.87,-0.87l27.32,0c0.48,0 0.87,0.39 0.87,0.87l0,0c0,0.48 -0.39,0.87 -0.87,0.87z"/>
    </g>
    <path stroke-width="2" stroke-miterlimit="10" stroke="#F7285E" id="svg_121" fill="none" d="m281.06,488.64c0,1.68 -1.36,3.04 -3.04,3.04c-1.68,0 -3.04,-1.36 -3.04,-3.04c0,-1.68 1.36,-3.04 3.04,-3.04c1.68,0 3.04,1.36 3.04,3.04z"/>
    <path stroke-width="2" stroke-miterlimit="10" stroke="#FFBE09" id="svg_122" fill="none" d="m299.73,488.64c0,1.68 -1.36,3.04 -3.04,3.04s-3.03,-1.36 -3.03,-3.04c0,-1.68 1.36,-3.04 3.03,-3.04s3.04,1.36 3.04,3.04z"/>
    <path id="svg_123" fill="#5A5D5A" d="m111.39,393.89c-3.43,2.73 -5.64,6.94 -5.64,11.67l0,94.44l30.99,0l0,-80.76l-25.35,-25.35z"/>
    <path id="svg_124" fill="#5A5D5A" d="m388.6,393.89c3.44,2.73 5.64,6.94 5.64,11.67l0,94.44l-30.98,0l0,-80.76l25.34,-25.35z"/>
   </g>
   <rect y="419.24" x="131.74" width="236.52" id="svg_125" height="2.17" fill="#5A5D5A"/>
   <ellipse transform="matrix(0.7071,-0.7071,0.7071,0.7071,-16.521,344.8558) " stroke-miterlimit="10" stroke-linejoin="round" stroke-linecap="round" stroke="#AAA7B2" ry="19.22" rx="19.22" id="svg_126" fill="none" cy="192.37" cx="408.02"/>
   <polygon stroke-miterlimit="10" stroke-linejoin="round" stroke-linecap="round" stroke="#AAA7B2" points="   91.259,160.139 77.441,140.714 101.173,138.46 124.904,136.206 114.99,157.885 105.076,179.564  " id="svg_127" fill="none"/>
   <polygon points="420.594,267.846 408.017,264.289 417.387,255.175 426.757,246.062 429.964,258.733    433.172,271.404  " id="svg_128" fill="#AAA7B2"/>
   <polygon points="71.918,99.286 66.566,95.536 72.49,92.776 78.414,90.016 77.842,96.526 77.27,103.037  " id="svg_129" fill="#EDEDF5"/>
   <polygon points="328.188,138.02 331.952,143.814 325.052,144.176 318.153,144.539 321.289,138.383    324.424,132.226  " id="svg_130" fill="#FFFFFF"/>
   <rect y="78.5" x="154.19" width="36.05" transform="matrix(0.3185,-0.9479,0.9479,0.3185,25.8602,229.0245) " stroke-miterlimit="10" stroke-linejoin="round" stroke-linecap="round" stroke="#FFFFFF" id="svg_131" height="36.05" fill="none"/>
   <rect y="277.16" x="27.2" width="36.05" transform="matrix(0.3185,-0.9479,0.9479,0.3185,-248.9926,244.019) " stroke-miterlimit="10" stroke-linejoin="round" stroke-linecap="round" stroke="#AAA7B2" id="svg_132" height="36.05" fill="none"/>
   <rect y="201.28" x="70.54" width="10.09" transform="matrix(-0.132,-0.9913,0.9913,-0.132,-118.9658,308.4707) " id="svg_133" height="10.09" fill="#FFFFFF"/>
   <g id="svg_134">
    <line y2="108.23" y1="96.53" x2="373.48" x1="357.41" stroke-miterlimit="10" stroke-linejoin="round" stroke-linecap="round" stroke="#EDEDF5" id="svg_135" fill="none"/>
    <line y2="110.41" y1="94.34" x2="359.59" x1="371.29" stroke-miterlimit="10" stroke-linejoin="round" stroke-linecap="round" stroke="#EDEDF5" id="svg_136" fill="none"/>
   </g>
   <g id="svg_137">
    <line y2="252.91" y1="237.24" x2="96.81" x1="78.69" stroke-miterlimit="10" stroke-linejoin="round" stroke-linecap="round" stroke="#FFFFFF" id="svg_138" fill="none"/>
    <line y2="254.14" y1="236.02" x2="79.91" x1="95.58" stroke-miterlimit="10" stroke-linejoin="round" stroke-linecap="round" stroke="#FFFFFF" id="svg_139" fill="none"/>
   </g>
   <circle r="5.39" id="svg_140" fill="#FFFFFF" cy="197.4" cx="363.26"/>
   <path stroke-miterlimit="10" stroke="#FFFFFF" id="svg_141" fill="none" d="m176.03,157.1c0,2.54 -2.06,4.6 -4.6,4.6c-2.54,0 -4.6,-2.06 -4.6,-4.6c0,-2.54 2.06,-4.6 4.6,-4.6c2.54,0 4.6,2.06 4.6,4.6z"/>
  </g>
 </g>
</svg>